<?xml version="1.0" encoding="UTF-8" standalone="no"?>
<svg
   viewBox="0 0 1000 500"
   width="100%"
   height="100%"
   version="1.1"
   id="svg23"
   sodipodi:docname="atencion_keys_queries.svg"
   inkscape:version="1.4.4 (dcaf3e7d9e, 2026-05-05)"
   xmlns:inkscape="http://www.inkscape.org/namespaces/inkscape"
   xmlns:sodipodi="http://sodipodi.sourceforge.net/DTD/sodipodi-0.dtd"
   xmlns="http://www.w3.org/2000/svg"
   xmlns:svg="http://www.w3.org/2000/svg">
  <sodipodi:namedview
     id="namedview23"
     pagecolor="#ffffff"
     bordercolor="#000000"
     borderopacity="0.25"
     inkscape:showpageshadow="2"
     inkscape:pageopacity="0.0"
     inkscape:pagecheckerboard="0"
     inkscape:deskcolor="#d1d1d1"
     inkscape:zoom="1.188"
     inkscape:cx="499.15825"
     inkscape:cy="255.05051"
     inkscape:window-width="1920"
     inkscape:window-height="1011"
     inkscape:window-x="0"
     inkscape:window-y="0"
     inkscape:window-maximized="1"
     inkscape:current-layer="svg23" />
  <defs
     id="defs2">
    <marker
       style="overflow:visible"
       id="marker9"
       refX="0"
       refY="0"
       orient="auto-start-reverse"
       inkscape:stockid="Triangle arrow"
       markerWidth="1"
       markerHeight="1"
       viewBox="0 0 1 1"
       inkscape:isstock="true"
       inkscape:collect="always"
       preserveAspectRatio="xMidYMid">
      <path
         transform="scale(0.5)"
         style="fill:context-stroke;fill-rule:evenodd;stroke:context-stroke;stroke-width:1pt"
         d="M 5.77,0 -2.88,5 V -5 Z"
         id="path9" />
    </marker>
    <inkscape:path-effect
       effect="bspline"
       id="path-effect8"
       is_visible="true"
       lpeversion="1.3"
       weight="33.333333"
       steps="2"
       helper_size="0"
       apply_no_weight="true"
       apply_with_weight="true"
       only_selected="false"
       uniform="false" />
    <marker
       style="overflow:visible"
       id="Triangle"
       refX="0"
       refY="0"
       orient="auto-start-reverse"
       inkscape:stockid="Triangle arrow"
       markerWidth="6"
       markerHeight="6"
       viewBox="0 0 1 1"
       inkscape:isstock="true"
       inkscape:collect="always"
       preserveAspectRatio="xMidYMid"
       markerUnits="userSpaceOnUse">
      <path
         transform="scale(0.5)"
         style="fill:context-stroke;fill-rule:evenodd;stroke:context-stroke;stroke-width:1pt"
         d="M 5.77,0 -2.88,5 V -5 Z"
         id="path135" />
    </marker>
    <marker
       markerWidth="0.52499998"
       markerHeight="0.99999995"
       refX="0"
       refY="0"
       orient="auto-start-reverse"
       id="CapTriangle"
       viewBox="0 0 0.525 1"
       inkscape:stockid="Triangle cap"
       style="overflow:visible"
       preserveAspectRatio="xMidYMid"
       inkscape:isstock="true"
       inkscape:collect="always">
      <path
         style="fill:context-stroke;stroke-linecap:butt"
         d="M 0,-1 1,0 0,1 -0.05,0 Z"
         sodipodi:nodetypes="sssssscsss"
         transform="scale(0.5)"
         id="path61" />
    </marker>
    <style
       id="style1">
      .title-keys { font-family: sans-serif; font-size: 36px; font-weight: bold; fill: #4caf50; text-anchor: middle; }
      .title-queries { font-family: sans-serif; font-size: 36px; font-weight: bold; fill: #e65100; text-anchor: middle; }
      
      /* Planos */
      .plane-keys { fill: #c8e6c9; fill-opacity: 0.7; stroke: #4caf50; stroke-width: 2; }
      .plane-queries { fill: #ffe0b2; fill-opacity: 0.7; stroke: #e65100; stroke-width: 2; }
      
      /* Ejes */
      .axis-keys { stroke: #00c853; stroke-width: 4; stroke-linecap: round; }
      .axis-queries { stroke: #e65100; stroke-width: 4; stroke-linecap: round; }
    </style>
    <marker
       id="arrow-green"
       viewBox="0 0 10 10"
       refX="10"
       refY="5"
       markerWidth="6"
       markerHeight="6"
       orient="auto-start-reverse"
       preserveAspectRatio="xMidYMid">
      <path
         d="M 0 0 L 10 5 L 0 10 z"
         fill="#00c853"
         id="path1" />
    </marker>
    <marker
       id="arrow-orange"
       viewBox="0 0 10 10"
       refX="10"
       refY="5"
       markerWidth="6"
       markerHeight="6"
       orient="auto-start-reverse"
       preserveAspectRatio="xMidYMid">
      <path
         d="M 0 0 L 10 5 L 0 10 z"
         fill="#e65100"
         id="path2" />
    </marker>
    <marker
       style="overflow:visible"
       id="Triangle-5"
       refX="0"
       refY="0"
       orient="auto-start-reverse"
       inkscape:stockid="Triangle arrow"
       markerWidth="6"
       markerHeight="6"
       viewBox="0 0 1 1"
       inkscape:isstock="true"
       inkscape:collect="always"
       preserveAspectRatio="xMidYMid"
       markerUnits="userSpaceOnUse">
      <path
         transform="scale(0.5)"
         style="fill:context-stroke;fill-rule:evenodd;stroke:context-stroke;stroke-width:1pt"
         d="M 5.77,0 -2.88,5 V -5 Z"
         id="path135-0" />
    </marker>
    <marker
       style="overflow:visible"
       id="Triangle-7"
       refX="0"
       refY="0"
       orient="auto-start-reverse"
       inkscape:stockid="Triangle arrow"
       markerWidth="2"
       markerHeight="2"
       viewBox="0 0 1 1"
       inkscape:isstock="true"
       inkscape:collect="always"
       preserveAspectRatio="xMidYMid"
       markerUnits="userSpaceOnUse">
      <path
         transform="scale(0.5)"
         style="fill:context-stroke;fill-rule:evenodd;stroke:context-stroke;stroke-width:1pt"
         d="M 5.77,0 -2.88,5 V -5 Z"
         id="path135-8" />
    </marker>
  </defs>
  <rect
     width="100%"
     height="100%"
     fill="#fefefa"
     id="rect2" />
  <path
     style="fill:#ffe0b2;fill-opacity:0.698039;stroke:#000000;stroke-width:2.604;stroke-dasharray:none;stroke-opacity:1;marker-end:url(#Triangle-7)"
     d="m 802.42025,48.466155 h -15.899 -28.2148"
     id="path3-8"
     sodipodi:nodetypes="ccc" />
  <g
     transform="matrix(0.8,0,0,0.8,661.4434,18.653295)"
     id="g11-3-5">
    <path
       d="M 10,45 Q 35,5 70,25 85,45 75,55 40,45 10,45 Z"
       fill="none"
       stroke="#424242"
       stroke-width="2"
       id="path7-1-4"
       style="fill:#c8e6c9;fill-opacity:0.698039" />
    <path
       d="M 25,35 Q 45,20 65,33 M 35,43 Q 55,25 73,43 M 18,45 45,12 M 35,47 60,17 M 55,48 72,28"
       fill="none"
       stroke="#757575"
       stroke-width="1"
       id="path8-3-9-7"
       style="fill:#c8e6c9;fill-opacity:0.698039" />
    <circle
       cx="12"
       cy="45"
       r="3.5"
       fill="#212121"
       id="circle8-6-4-4" />
    <circle
       cx="32"
       cy="47"
       r="3.5"
       fill="#212121"
       id="circle9-7-4" />
    <circle
       cx="54"
       cy="49"
       r="3.5"
       fill="#212121"
       id="circle10-8-3" />
    <circle
       cx="75"
       cy="53"
       r="3.5"
       fill="#212121"
       id="circle11-0-4-0" />
  </g>
  <g
     transform="matrix(0.65,0,0,0.65,828.3125,43.425)"
     id="g22-5">
    <path
       d="m -5.3846155,9.6153849 c 15.0000004,-19.9999999 55.0000005,-15.0000004 70.0000005,0 -15,15.0000001 -55.0000001,20.0000001 -70.0000005,0 z"
       fill="#bcaaa4"
       stroke="#5d4037"
       stroke-width="2"
       id="path18-6" />
    <g
       id="g24-9">
      <path
         d="m 64.615385,9.6153849 15,-15.0000004 -5,15.0000004 5,15.0000001 z"
         fill="#a1887f"
         stroke="#5d4037"
         stroke-width="2"
         id="path19-3" />
      <path
         d="m 29.615385,-2.3846155 q 10,-12.9999995 15,0 z"
         fill="#a1887f"
         stroke="#5d4037"
         stroke-width="2"
         id="path20-7" />
      <path
         d="m 29.615385,21.615385 q 10,11 15,0 z"
         fill="#a1887f"
         stroke="#5d4037"
         stroke-width="2"
         id="path21-4" />
      <circle
         cx="9.6153841"
         cy="6.6153836"
         r="3"
         fill="#333333"
         id="circle21-5" />
    </g>
  </g>
  <g
     id="g25"
     transform="translate(-240,8)">
    <text
       x="808"
       y="444"
       class="title-queries"
       id="text3">Queries</text>
    <text
       x="520.5"
       y="71.351562"
       class="title-queries"
       id="text3-3"
       style="font-weight:bold;font-size:16px;font-family:sans-serif;text-anchor:middle;fill:#e65100">Query</text>
    <g
       id="g23">
      <polygon
         points="545,185 870,205 915,405 590,380 "
         class="plane-queries"
         id="polygon13" />
      <line
         x1="545"
         y1="185"
         x2="590"
         y2="380"
         class="axis-queries"
         marker-end="url(#arrow-orange)"
         id="line13"
         style="marker-start:url(#arrow-orange);marker-end:url(#CapTriangle)" />
      <line
         x1="590"
         y1="380"
         x2="915"
         y2="405"
         class="axis-queries"
         marker-end="url(#arrow-orange)"
         id="line14" />
      <g
         transform="matrix(0.8,0,0,0.8,820,210)"
         id="g18" />
      <g
         transform="matrix(0.65,0,0,0.65,850,365)"
         id="g22">
        <path
           d="m -5.3846155,9.6153849 c 15.0000004,-19.9999999 55.0000005,-15.0000004 70.0000005,0 -15,15.0000001 -55.0000001,20.0000001 -70.0000005,0 z"
           fill="#bcaaa4"
           stroke="#5d4037"
           stroke-width="2"
           id="path18" />
        <g
           id="g24">
          <path
             d="m 64.615385,9.6153849 15,-15.0000004 -5,15.0000004 5,15.0000001 z"
             fill="#a1887f"
             stroke="#5d4037"
             stroke-width="2"
             id="path19" />
          <path
             d="m 29.615385,-2.3846155 q 10,-12.9999995 15,0 z"
             fill="#a1887f"
             stroke="#5d4037"
             stroke-width="2"
             id="path20" />
          <path
             d="m 29.615385,21.615385 q 10,11 15,0 z"
             fill="#a1887f"
             stroke="#5d4037"
             stroke-width="2"
             id="path21" />
          <circle
             cx="9.6153841"
             cy="6.6153836"
             r="3"
             fill="#333333"
             id="circle21" />
        </g>
      </g>
    </g>
    <g
       transform="matrix(0.8,0,0,0.8,809.62314,203.13496)"
       id="g11">
      <path
         d="M 10,45 Q 35,5 70,25 85,45 75,55 40,45 10,45 Z"
         fill="none"
         stroke="#424242"
         stroke-width="2"
         id="path7" />
      <path
         d="M 25,35 Q 45,20 65,33 M 35,43 Q 55,25 73,43 M 18,45 45,12 M 35,47 60,17 M 55,48 72,28"
         fill="none"
         stroke="#757575"
         stroke-width="1"
         id="path8-3" />
      <circle
         cx="12"
         cy="45"
         r="3.5"
         fill="#212121"
         id="circle8-6" />
      <circle
         cx="32"
         cy="47"
         r="3.5"
         fill="#212121"
         id="circle9" />
      <circle
         cx="54"
         cy="49"
         r="3.5"
         fill="#212121"
         id="circle10" />
      <circle
         cx="75"
         cy="53"
         r="3.5"
         fill="#212121"
         id="circle11-0" />
    </g>
    <g
       transform="matrix(0.8,0,0,0.8,486.4434,8.6533)"
       id="g11-3">
      <path
         d="M 10,45 Q 35,5 70,25 85,45 75,55 40,45 10,45 Z"
         fill="none"
         stroke="#424242"
         stroke-width="2"
         id="path7-1"
         style="fill:#ffe0b2;fill-opacity:0.69803923" />
      <path
         d="M 25,35 Q 45,20 65,33 M 35,43 Q 55,25 73,43 M 18,45 45,12 M 35,47 60,17 M 55,48 72,28"
         fill="none"
         stroke="#757575"
         stroke-width="1"
         id="path8-3-9"
         style="fill:#ffe0b2;fill-opacity:0.69803923" />
      <circle
         cx="12"
         cy="45"
         r="3.5"
         fill="#212121"
         id="circle8-6-4" />
      <circle
         cx="32"
         cy="47"
         r="3.5"
         fill="#212121"
         id="circle9-7" />
      <circle
         cx="54"
         cy="49"
         r="3.5"
         fill="#212121"
         id="circle10-8" />
      <circle
         cx="75"
         cy="53"
         r="3.5"
         fill="#212121"
         id="circle11-0-4" />
    </g>
  </g>
  <g
     id="g26"
     transform="translate(210,-52)">
    <text
       x="142"
       y="214"
       class="title-keys"
       id="text2">Keys</text>
    <text
       x="-87.017578"
       y="131.35156"
       class="title-keys"
       id="text2-0"
       style="font-weight:bold;font-size:16px;font-family:sans-serif;text-anchor:middle;fill:#4caf50">Key</text>
    <text
       x="642.56641"
       y="131.98047"
       class="title-queries"
       id="text3-3-4"
       style="font-weight:bold;font-size:16px;font-family:sans-serif;text-anchor:middle;fill:#e65100">Query</text>
    <text
       x="483.41211"
       y="129.76953"
       class="title-keys"
       id="text2-0-1"
       style="font-weight:bold;font-size:16px;font-family:sans-serif;text-anchor:middle;fill:#4caf50">Key</text>
    <g
       id="g13">
      <polygon
         points="402,74 330,324 140,440 212,190 "
         class="plane-keys"
         id="polygon3" />
      <line
         x1="140"
         y1="440"
         x2="212"
         y2="190"
         class="axis-keys"
         marker-end="url(#arrow-green)"
         id="line3" />
      <line
         x1="140"
         y1="440"
         x2="330"
         y2="324"
         class="axis-keys"
         marker-end="url(#arrow-green)"
         id="line4" />
      <g
         transform="matrix(0.8,0,0,0.8,305,130)"
         id="g8">
        <path
           d="M 10,45 Q 35,5 70,25 85,45 75,55 40,45 10,45 Z"
           fill="none"
           stroke="#333333"
           stroke-width="2"
           id="path4" />
        <path
           d="M 25,35 Q 45,20 65,33 M 35,43 Q 55,25 73,43 M 18,45 45,12 M 35,47 60,17 M 55,48 72,28"
           fill="none"
           stroke="#555555"
           stroke-width="1"
           id="path5" />
        <circle
           cx="12"
           cy="45"
           r="3"
           fill="#111111"
           id="circle5" />
        <circle
           cx="32"
           cy="47"
           r="3"
           fill="#111111"
           id="circle6" />
        <circle
           cx="54"
           cy="49"
           r="3"
           fill="#111111"
           id="circle7" />
        <circle
           cx="75"
           cy="53"
           r="3"
           fill="#111111"
           id="circle8" />
      </g>
      <g
         transform="matrix(0.65,0,0,0.65,-106.6875,131.425)"
         id="g12-2">
        <path
           d="m 0.76923072,-54.999999 c 15.00000028,-19.999999 55.00000028,-15 70.00000028,0 -15,15 -55,20 -70.00000028,0 z"
           fill="#90caf9"
           stroke="#1565c0"
           stroke-width="2"
           id="path8-37"
           style="stroke:#006329;stroke-opacity:1;fill:#00c853;fill-opacity:1" />
        <path
           d="m 70.769231,-54.999999 15,-15 -5,15 5,15 z"
           fill="#64b5f6"
           stroke="#1565c0"
           stroke-width="2"
           id="path9-5"
           style="stroke:#006329;stroke-opacity:1;fill:#00c853;fill-opacity:1" />
        <path
           d="m 35.769231,-66.999999 q 10,-12.999999 15,0 z"
           fill="#64b5f6"
           stroke="#1565c0"
           stroke-width="2"
           id="path10-9"
           style="stroke:#006329;stroke-opacity:1;fill:#00c853;fill-opacity:1" />
        <path
           d="m 35.769231,-42.999999 q 10,11 15,0 z"
           fill="#64b5f6"
           stroke="#1565c0"
           stroke-width="2"
           id="path11-2"
           style="stroke:#006329;stroke-opacity:1;fill:#00c853;fill-opacity:1" />
        <circle
           cx="15.76923"
           cy="-58.000004"
           r="3"
           fill="#333333"
           id="circle11-2" />
      </g>
      <g
         transform="matrix(0.65,0,0,0.65,234.3125,354.425)"
         id="g12-2-9">
        <path
           d="m 0.76923072,-54.999999 c 15.00000028,-19.999999 55.00000028,-15 70.00000028,0 -15,15 -55,20 -70.00000028,0 z"
           fill="#90caf9"
           stroke="#1565c0"
           stroke-width="2"
           id="path8-37-7"
           style="fill:#00c853;fill-opacity:1;stroke:#006329;stroke-opacity:1" />
        <path
           d="m 70.769231,-54.999999 15,-15 -5,15 5,15 z"
           fill="#64b5f6"
           stroke="#1565c0"
           stroke-width="2"
           id="path9-5-3"
           style="fill:#00c853;fill-opacity:1;stroke:#006329;stroke-opacity:1" />
        <path
           d="m 35.769231,-66.999999 q 10,-12.999999 15,0 z"
           fill="#64b5f6"
           stroke="#1565c0"
           stroke-width="2"
           id="path10-9-6"
           style="fill:#00c853;fill-opacity:1;stroke:#006329;stroke-opacity:1" />
        <path
           d="m 35.769231,-42.999999 q 10,11 15,0 z"
           fill="#64b5f6"
           stroke="#1565c0"
           stroke-width="2"
           id="path11-2-1"
           style="fill:#00c853;fill-opacity:1;stroke:#006329;stroke-opacity:1" />
        <circle
           cx="15.76923"
           cy="-58.000004"
           r="3"
           fill="#333333"
           id="circle11-2-2" />
      </g>
    </g>
  </g>
  <path
     style="fill:#ffe0b2;fill-opacity:0.698039;stroke:#000000;stroke-width:8.604;stroke-dasharray:none;stroke-opacity:1;marker-end:url(#Triangle)"
     d="m 240.64647,46.087542 h -15.899 -28.2148"
     id="path3"
     sodipodi:nodetypes="ccc" />
  <path
     style="fill:#ffe0b2;fill-opacity:0.698039;stroke:#000000;stroke-width:8.76849;stroke-dasharray:none;stroke-opacity:1;marker-end:url(#Triangle-5)"
     d="m 571.59655,237.13261 -43.32698,14.89746"
     id="path3-6" />
  <path
     style="fill:#000000;fill-opacity:0;stroke:#000000;stroke-width:1.5;stroke-dasharray:none;stroke-opacity:1;marker-end:url(#marker9)"
     d="m 658.5,379.25 c 7.77273,-35.78816 15.54545,-71.57632 14.38121,-107.84899 -1.16424,-36.27268 -11.26505,-73.02839 -27.00162,-97.60944 C 630.14301,149.21053 608.77172,136.80539 587.4,124.4"
     id="path8"
     inkscape:path-effect="#path-effect8"
     inkscape:original-d="m 658.5,379.25 c 7.77273,-35.78816 15.54545,-71.57632 23.31818,-107.36448 C 671.71697,235.12833 661.61616,198.37262 651.51515,161.61616 630.14301,149.21053 608.77172,136.80539 587.4,124.4"
     sodipodi:nodetypes="cccc" />
</svg>
